<svg width="108" height="50" viewBox="0 0 108 50" fill="none" xmlns="http://www.w3.org/2000/svg">
<path d="M62.0569 0.821594C63.2225 1.54651 68.9081 4.81576 68.9223 4.82997C68.8939 4.81576 68.837 4.80154 68.7802 4.80154C68.0979 4.80154 65.7952 5.8676 62.7392 7.47379C62.995 13.728 63.0377 23.024 62.7961 29.3209C65.9658 30.9981 68.3111 32.121 68.8655 32.121C68.9081 32.121 68.9365 32.121 68.9508 32.1068C70.0026 31.4672 70.2016 5.68281 68.9365 4.84418L62.0285 0.793163C62.0427 0.807377 62.0427 0.807379 62.0569 0.821594ZM68.6949 32.2347C68.7944 32.1779 68.8797 32.121 68.9365 32.0926C68.9223 32.1068 68.837 32.1495 68.6949 32.2347Z" fill="#5BB2DB"/>
<path d="M38.8169 13.9127V14.9645C39.5987 15.6468 41.4749 16.8976 43.9198 18.4327C49.2074 15.064 57.2099 10.3733 62.7392 7.47367C62.5829 3.76379 62.3554 1.11997 62.0569 0.821478C62.0285 0.807264 61.9859 0.793047 61.9148 0.793047C59.868 0.793047 41.7734 11.0698 38.8169 13.9127Z" fill="#5BB2DB"/>
<path d="M62.0427 36.0583C62.0427 36.0583 62.0569 36.0583 62.0427 36.0583C62.0569 36.0441 62.0711 36.0441 62.0711 36.0441C62.6113 35.7314 67.2735 33.0592 68.6949 32.2205C68.837 32.1353 68.9223 32.0926 68.9365 32.0784C68.9223 32.0926 68.8939 32.0926 68.8512 32.0926C68.2969 32.0926 65.9516 30.9697 62.7818 29.2924C62.6397 33.0734 62.398 35.7599 62.0427 36.0583Z" fill="#5BB2DB"/>
<path d="M38.8321 21.9953C39.5853 21.2958 41.4684 20.0046 43.9432 18.4444C41.5222 16.9379 39.6391 15.6467 38.8321 15.0011V21.9953Z" fill="#5BB2DB"/>
<path d="M62.7392 7.47375C65.7952 5.86756 68.1121 4.80151 68.7802 4.80151C68.8513 4.80151 68.8939 4.81572 68.9223 4.82994C68.8939 4.81572 63.2083 1.54648 62.0569 0.821561C62.3554 1.12006 62.5829 3.76388 62.7392 7.47375Z" fill="#5BB2DB"/>
<path d="M38.8169 21.9864V22.9813C41.6455 25.7389 59.8538 36.101 61.929 36.101C61.9717 36.101 62.0143 36.101 62.0427 36.0867C62.3981 35.7882 62.6397 33.0876 62.7819 29.3208C57.2526 26.3927 49.2216 21.7589 43.9055 18.4328C41.4607 19.9964 39.5845 21.2899 38.8169 21.9864ZM68.9366 32.0926C68.9508 32.0926 68.9508 32.0926 68.9366 32.0926C68.9508 32.0926 68.9366 32.0926 68.9366 32.0926ZM62.0711 36.0583C63.1656 35.5324 67.6004 32.8886 68.6949 32.2347C67.2735 33.0734 62.6113 35.7456 62.0711 36.0583Z" fill="#5BB2DB"/>
<path d="M5.42149 49.2186V43.0853H0.310364V44.3227H3.91505V49.2186H5.42149ZM1.8168 45.614H0.310364V49.1648H1.8168V45.614ZM8.91857 46.4748V43.0853H6.1209V44.3227H7.35833V46.4748H8.91857ZM12.3619 46.4748V43.0853H9.56419V44.3227H10.8016V46.4748H12.3619ZM20.4858 43.0853H18.818L17.742 47.3894C17.6882 47.7122 17.5806 47.9812 17.0964 47.9812H16.0203L15.8051 46.8514C16.5584 46.7438 16.9888 46.6362 17.204 45.7216L17.9034 43.0853H16.2893L15.5899 45.8292L15.0519 43.0853H13.0613V44.3227H13.7607L14.7291 49.2186H17.204C18.28 49.2186 19.0332 48.7344 19.356 47.3894L20.4858 43.0853ZM23.3373 43.9461C23.2297 43.4619 22.7455 43.0853 22.2613 43.0853H21.0239V44.3227H21.8309L22.6917 47.9274H21.5081V49.2186H24.1981C25.2742 49.2186 25.9736 48.7344 26.3502 47.3894L27.4262 43.0853H24.6285V44.3227H25.5432L24.7362 47.4432C24.6824 47.6584 24.6285 47.8736 24.3057 47.9274L23.3373 43.9461ZM33.721 49.2186V44.1613C33.721 43.5695 33.2368 43.0853 32.6449 43.0853H27.9642V44.3227H28.8788V47.9274H27.9642V49.2186H30.3853V44.3227H32.1607V49.2186H33.721ZM39.8543 49.2186V43.0853H34.7432V44.3227H38.3479V49.2186H39.8543ZM36.2496 45.614H34.7432V49.1648H36.2496V45.614ZM43.1362 49.2186V43.0853H40.5537V44.3227H41.576V49.2186H43.1362ZM51.5292 49.2186V43.0853H46.4181V44.3227H50.0228V49.2186H51.5292ZM47.9783 45.614H46.4719V49.1648H47.9783V45.614ZM57.3935 43.0853H53.7888V41.5789H52.2824V44.3227H55.2953L53.5198 49.2186H55.2415L57.3935 43.0853ZM60.783 49.2186C61.8052 49.2186 62.6661 48.3578 62.6661 47.228V43.0853H57.9315V44.3227H61.1596V47.2818C61.1596 47.7122 60.8906 47.9274 60.5678 47.9274H57.9315V49.2186H60.783ZM68.4228 43.0853H64.8181V41.5789H63.3117V44.3227H66.3245L64.5491 49.2186H66.2707L68.4228 43.0853ZM71.8123 49.2186C72.8345 49.2186 73.6953 48.3578 73.6953 47.228V43.0853H68.9608V44.3227H72.1889V47.2818C72.1889 47.7122 71.9199 47.9274 71.5971 47.9274H68.9608V49.2186H71.8123ZM79.7749 49.2186V43.0853H74.6637V44.3227H78.2684V49.2186H79.7749ZM76.1702 45.614H74.6637V49.1648H76.1702V45.614ZM88.2217 44.3227V43.0853H82.9492V44.3227H85.8006V49.2186H87.3609V44.3227H88.2217ZM93.6018 49.2186V44.1613C93.6018 43.5695 93.1714 43.0853 92.5258 43.0853H88.8135V44.3227H92.0954V49.2186H93.6018ZM101.618 43.0853H99.9504L98.8743 47.3894C98.8205 47.7122 98.7129 47.9812 98.2287 47.9812H97.1527L96.9375 46.8514C97.6907 46.7438 98.1211 46.6362 98.3363 45.7216L99.0357 43.0853H97.4217L96.7223 45.8292L96.1843 43.0853H94.1936V44.3227H94.893L95.8615 49.2186H98.3363C99.4123 49.2186 100.166 48.7344 100.488 47.3894L101.618 43.0853ZM107.859 49.2186V44.1613C107.859 43.5695 107.429 43.0853 106.783 43.0853H102.21V44.3227H103.447L102.156 49.2186H103.77L105.061 44.3227H106.353V47.9274H104.954V49.2186H107.859Z" fill="#5BB2DB"/>
</svg>
