<svg width="96" height="48" viewBox="0 0 96 48" fill="none" xmlns="http://www.w3.org/2000/svg">
<path d="M47.3131 4.5542H46.9794V45.794H47.3131V4.5542Z" fill="#5BB2DB"/>
<path d="M61.2452 4.65149C61.7322 4.43182 62.285 4.40742 62.7894 4.58335C63.2939 4.75927 63.7117 5.12209 63.9565 5.59698C64.1188 5.8085 64.2377 6.05002 64.3063 6.30765C64.375 6.56528 64.392 6.83394 64.3565 7.09818C64.321 7.36242 64.2336 7.61704 64.0993 7.84738C63.965 8.07772 63.7865 8.27925 63.5741 8.44038H63.5185L63.4559 8.47514C62.9637 8.68144 62.4111 8.69118 61.9119 8.50237C61.4127 8.31355 61.0049 7.94055 60.7724 7.46014C60.1606 6.40342 60.3623 5.13814 61.2313 4.6793L61.2452 4.65149Z" fill="#5BB2DB"/>
<path d="M52.0545 12.5074C52.5759 12.5074 53.2433 12.5074 53.7786 12.5074C58.9715 12.8741 64.0013 14.4783 68.4475 17.1861C68.305 12.0303 69.4117 6.91643 71.6733 2.28084C71.9444 1.71772 72.2086 1.33535 72.5006 0.793091C70.4288 4.35353 67.4272 7.28306 63.8174 9.26768C60.2399 11.3403 56.1887 12.456 52.0545 12.5074Z" fill="#5BB2DB"/>
<path d="M49.7811 24.1034C49.7811 23.1093 50.7405 22.282 51.971 22.2541C53.2016 22.2263 54.2166 22.998 54.2444 23.9922V24.1312C54.2444 25.1254 53.2433 25.9248 52.0127 25.9248C50.7822 25.9248 49.7811 25.1254 49.7811 24.1243V24.1034Z" fill="#5BB2DB"/>
<path d="M52.0475 35.9289C52.3326 35.4909 52.6246 34.893 52.9305 34.462C55.8606 30.1757 59.7781 26.6564 64.3527 24.2007C59.7806 21.7503 55.8652 18.2356 52.9374 13.9534C52.5829 13.4389 52.3743 13.0218 52.0545 12.5004C54.1253 16.0491 55.1788 20.0997 55.0995 24.2077C55.1282 28.3148 54.0756 32.3573 52.0475 35.9289Z" fill="#5BB2DB"/>
<path d="M61.0575 43.7013C60.6258 43.3968 60.3299 42.9359 60.2325 42.4167C60.1351 41.8974 60.244 41.3607 60.5361 40.9205C60.756 40.4343 61.1538 40.0509 61.6478 39.8491C62.1418 39.6474 62.6944 39.6427 63.1918 39.8359H63.2543H63.3169C63.7457 40.1528 64.0332 40.6251 64.1177 41.1515C64.2022 41.6779 64.0769 42.2165 63.7688 42.6515C63.535 43.1324 63.1255 43.5051 62.6248 43.6927C62.1241 43.8803 61.5705 43.8685 61.0783 43.6596L61.0575 43.7013Z" fill="#5BB2DB"/>
<path d="M72.5214 47.6711C72.2781 47.2122 71.9096 46.6561 71.6802 46.1764C69.4071 41.5342 68.2931 36.4102 68.4336 31.2433C63.9879 33.9456 58.9612 35.5473 53.7716 35.9151C53.146 35.9707 52.6732 35.9151 52.0545 35.9151C56.1932 35.9178 60.2546 37.037 63.8105 39.1548C67.4007 41.1784 70.4027 44.1014 72.5214 47.6363" fill="#5BB2DB"/>
<path d="M83.7908 43.896C83.3029 44.1151 82.7495 44.1385 82.2449 43.9612C81.7403 43.784 81.3231 43.4197 81.0795 42.9435C80.7589 42.5168 80.62 41.9808 80.6929 41.4521C80.7659 40.9234 81.0447 40.445 81.4688 40.121L81.5244 40.0862H81.587C82.08 39.8804 82.6333 39.8717 83.1326 40.0618C83.6319 40.252 84.0392 40.6265 84.2705 41.1082C84.5706 41.5404 84.6906 42.0725 84.605 42.5917C84.5193 43.1108 84.2347 43.5762 83.8116 43.889L83.7908 43.896Z" fill="#5BB2DB"/>
<path d="M92.9884 36.0125C92.467 36.0125 91.7996 36.0125 91.2712 36.0125C86.0771 35.6405 81.0463 34.0367 76.5953 31.3337C76.7358 36.4962 75.6217 41.6157 73.3487 46.2529C73.0776 46.816 72.8134 47.2054 72.5214 47.7407C74.5993 44.1796 77.6085 41.2521 81.2254 39.273C84.8004 37.1943 88.8532 36.0781 92.9884 36.0333" fill="#5BB2DB"/>
<path d="M95.3104 24.3468C95.3104 25.341 94.351 26.1683 93.1205 26.1961C91.89 26.2239 90.8749 25.4522 90.8471 24.4581V24.319C90.8471 23.3249 91.8482 22.5254 93.0788 22.5254C94.3093 22.5254 95.3104 23.3318 95.3104 24.326V24.3468Z" fill="#5BB2DB"/>
<path d="M93.0231 12.5212C92.7451 12.9662 92.4461 13.5571 92.1402 13.9881C89.2081 18.2753 85.2882 21.7946 80.711 24.2494C85.2816 26.7021 89.1964 30.2164 92.1263 34.4968C92.4809 35.0112 92.6894 35.4353 93.0162 35.9498C90.9429 32.4017 89.887 28.3511 89.9642 24.2425C89.9401 20.1359 90.9924 16.0946 93.0162 12.5212" fill="#5BB2DB"/>
<path d="M83.9924 4.76272C84.4266 5.06507 84.7251 5.52552 84.8239 6.04535C84.9227 6.56518 84.8138 7.10301 84.5208 7.54356C84.3008 8.03141 83.9018 8.41606 83.4062 8.61792C82.9106 8.81979 82.3563 8.82342 81.8581 8.62808L81.8025 8.59332L81.7399 8.55856C81.3164 8.24581 81.0321 7.77981 80.9477 7.26017C80.8632 6.74054 80.9854 6.20848 81.288 5.77773C81.5193 5.29438 81.9278 4.9186 82.4287 4.72832C82.9297 4.53805 83.4846 4.54788 83.9785 4.75577L83.9924 4.76272Z" fill="#5BB2DB"/>
<path d="M72.5353 0.793091C72.7787 1.25193 73.1471 1.80114 73.3765 2.28084C75.6497 6.92301 76.7637 12.047 76.6232 17.2139C81.0689 14.5116 86.0956 12.9099 91.2851 12.5421C91.9108 12.4935 92.3835 12.5421 93.0023 12.5074C88.8638 12.5098 84.8017 11.3928 81.2463 9.27464C77.6561 7.25095 74.6541 4.32804 72.5353 0.793091" fill="#5BB2DB"/>
<path d="M18.2395 12.5004V7.74512H16.4945V12.4725H14.1447V11.2768H15.0346V7.74512H14.1447V6.57022H18.6844C18.9591 6.57022 19.2226 6.67936 19.4169 6.87362C19.6111 7.06788 19.7203 7.33135 19.7203 7.60608V12.4725L18.2395 12.5004ZM21.6529 12.5004V7.74512H20.631V6.57022H23.1337V12.5004H21.6529ZM24.0306 12.5004V11.2768H27.0339V7.74512H24.0306V6.57022H27.5066C27.7832 6.57022 28.0484 6.68009 28.244 6.87565C28.4395 7.07122 28.5494 7.33646 28.5494 7.61303V11.2768H29.189V12.5004H24.0306ZM30.8575 9.87246V7.74512H29.6339V6.57022H32.3383V9.87246H30.8575ZM37.309 10.5329L38.3449 12.5004H33.1447V11.2768H35.9951L34.1319 7.74512H33.1447V6.57022H34.5352C34.7236 6.54881 34.9139 6.58863 35.0779 6.68379C35.2419 6.77895 35.3709 6.92439 35.4459 7.09858L36.3496 8.81574L37.17 6.57022H38.769L37.309 10.5329ZM39.346 12.5004V11.2768H40.8546V7.74512H39.6936V6.57022H42.3493V12.5004H39.346Z" fill="#5BB2DB"/>
<path d="M19.4561 23.7349V17.4781H18.4272V16.2545H20.923V23.7349H19.4561ZM22.8905 22.1777V17.4781H21.8685V16.2545H24.3991V22.1846L22.8905 22.1777ZM26.3665 19.5498V17.4781H25.1777V16.2545H27.8751V19.5637L26.3665 19.5498ZM29.773 22.1777V17.4781H28.7789V16.2545H31.2816V22.1846L29.773 22.1777ZM33.1726 22.1777V17.4781H32.1784V16.2545H34.6812V22.1846L33.1726 22.1777ZM41.5499 20.3979C41.2092 21.7327 40.507 22.1777 39.4642 22.1777H37.031L36.1133 17.4781H35.4181V16.2545H37.3508L37.8722 18.9032L38.5674 16.2545H40.1177L39.4225 18.785C39.1861 19.6749 38.7621 19.807 38.0321 19.8974L38.3032 20.9541H39.36C39.8257 20.9541 39.9161 20.676 39.9926 20.391L41.0215 16.2197H42.6483L41.5499 20.3979Z" fill="#5BB2DB"/>
<path d="M4.4396 31.8758V27.1484H2.69462V31.8758H0.344818V30.687H1.23469V27.211H0.344818V25.9457H4.87758C5.15295 25.9457 5.41715 26.0546 5.61251 26.2486C5.80788 26.4427 5.91856 26.7062 5.92039 26.9815V31.848L4.4396 31.8758ZM7.84612 31.8758V27.1484H6.83112V25.9457H9.33387V31.8758H7.84612ZM11.3222 29.2479V27.1623H10.1334V25.9457H12.8377V29.2479H11.3222ZM14.7217 31.8758V27.1484H13.7345V25.9457H16.2442V31.8758H14.7217ZM17.0576 31.8758V30.687H18.5732V27.211H17.447V25.9457H20.0887V31.8758H17.0576ZM23.5995 31.8758V30.687H24.99V27.211H23.7733L22.522 31.9384H20.9578L22.2161 27.211H21.0064V25.9457H25.4697C25.7414 25.9529 25.9995 26.066 26.1891 26.2608C26.3787 26.4556 26.4848 26.7167 26.4847 26.9885V31.855L23.5995 31.8758ZM31.6431 27.1484V31.8758H30.1832V27.1484H27.4023V25.9457H32.533V27.1484H31.6431ZM36.0229 27.1971C35.3277 27.4265 35.1192 27.9409 35.2721 28.8238L35.7866 31.8758H34.3266L33.8539 29.095C33.7376 28.7518 33.7292 28.3813 33.8299 28.0333C33.9306 27.6853 34.1355 27.3764 34.417 27.1484H33.2004V25.9457H36.4818V27.058L36.0229 27.1971ZM40.7851 31.8758V27.1484H37.3091V25.9457H42.2798V31.8758H40.7851ZM37.3091 31.8758V28.3998H38.7968V31.8758H37.3091Z" fill="#5BB2DB"/>
<path d="M13.5399 41.5671V36.8397H10.0639V35.63H15.0346V41.5671H13.5399ZM10.0639 41.5671V38.091H11.5377V41.5671H10.0639ZM20.2278 36.8397V41.5671H18.7123V36.8397H15.9314V35.63H21.0621V36.8397H20.2278ZM22.7723 41.5671V36.8397H21.7225V35.63H24.2322V41.5671H22.7723ZM25.1569 41.5671V40.3366H28.1602V36.8605H25.129V35.63H28.6051C28.8823 35.6318 29.1475 35.7433 29.3429 35.9399C29.5383 36.1366 29.6479 36.4026 29.6479 36.6798V40.3366H30.2875V41.5671H25.1569ZM33.9443 40.3296C34.2363 40.2879 34.2988 40.0793 34.3406 39.8847L35.1262 36.8397H34.2224V35.63H36.9128L35.8492 39.8013C35.5085 41.1222 34.8342 41.581 33.7635 41.581H31.1704V40.3366H32.3384L31.4902 36.8605H30.656V35.63H31.8656C32.1072 35.6317 32.3417 35.712 32.5336 35.8587C32.7255 36.0055 32.8644 36.2107 32.9293 36.4434L33.9443 40.3296ZM37.5872 41.5671V40.3366H40.5905V36.8605H37.5594V35.63H41.0354C41.3126 35.6318 41.5779 35.7433 41.7732 35.9399C41.9686 36.1366 42.0782 36.4026 42.0782 36.6798V40.3366H42.7178V41.5671H37.5872Z" fill="#5BB2DB"/>
</svg>
