<svg width="60" height="37" viewBox="0 0 60 37" fill="none" xmlns="http://www.w3.org/2000/svg">
<path d="M14.5 16C14.5 15.4477 14.9477 15 15.5 15H43.5C44.0523 15 44.5 15.4477 44.5 16V26.323C44.5 26.7319 44.251 27.0996 43.8714 27.2514L29.8714 32.8514C29.633 32.9468 29.367 32.9468 29.1286 32.8514L15.1286 27.2514C14.749 27.0996 14.5 26.7319 14.5 26.323V16Z" fill="white" stroke="#E15050" stroke-width="2"/>
<path d="M56.6393 9.5941L29.8044 1.09641C29.6064 1.0337 29.3938 1.03421 29.196 1.09789L2.80871 9.5955C1.89877 9.88853 1.87931 11.1689 2.77992 11.4895L29.1675 20.8816C29.3827 20.9582 29.6176 20.9589 29.8331 20.8834L56.6677 11.4913C57.5748 11.1738 57.5555 9.88424 56.6393 9.5941Z" fill="white" stroke="#E15050" stroke-width="2"/>
<circle cx="45" cy="26" r="11" fill="#51E6CA"/>
<circle cx="45" cy="26" r="11" fill="#E15050"/>
<path fill-rule="evenodd" clip-rule="evenodd" d="M48.2085 22.729C48.6004 22.3288 49.2445 22.3284 49.6368 22.7282L50.3135 23.4177C50.6948 23.8063 50.6952 24.4286 50.3143 24.8177L44.9756 30.271C44.5838 30.6712 43.9396 30.6716 43.5473 30.2718L42.1841 28.8828L48.2085 22.729ZM40.6926 27.377C40.3083 26.989 40.3063 26.3645 40.6881 25.9741L41.3164 25.3315C41.6977 24.9416 42.3211 24.929 42.7177 25.3033L43.5478 26.0866C43.9443 26.4607 44.5674 26.4483 44.9487 26.0588L45.5532 25.4414L42.1841 28.8828L40.6926 27.377Z" fill="white"/>
</svg>
