<svg width="18" height="23" viewBox="0 0 18 23" fill="none" xmlns="http://www.w3.org/2000/svg">
<path fill-rule="evenodd" clip-rule="evenodd" d="M11.2341 0C11.4671 0 11.6896 0.0980835 11.8482 0.271342L17.2849 6.22345C17.4275 6.37944 17.5069 6.58434 17.5069 6.79715V20.6278C17.5069 21.9359 16.4543 23 15.1609 23H2.34487C1.05153 23 0 21.9359 0 20.6278V2.37162C0 1.06411 1.05153 0 2.34487 0H11.2341ZM11.7276 6.75213H15.4909L11.7276 2.63236V6.75213ZM2.34487 21.3091H15.1609C15.5316 21.3091 15.834 21.0033 15.8346 20.6273V7.54099H11.3376C11.1217 7.54099 10.9471 7.36494 10.9471 7.14656V1.77658L10.8683 1.69089H2.34487C1.97362 1.69089 1.67231 1.99614 1.67231 2.37162V20.6278C1.67231 21.0039 1.97362 21.3091 2.34487 21.3091ZM6.94764 9.81435L8.6349 12.2635L10.2516 9.81435H12.4435L9.8126 13.399L12.6184 16.8246H10.4195L8.61652 14.3663L6.8285 16.8246H4.67345L7.41499 13.2365L4.84358 9.81435H6.94764Z" fill="#7D8285"/>
</svg>
