<svg width="12" height="38" viewBox="0 0 12 38" fill="none" xmlns="http://www.w3.org/2000/svg">
<path fill-rule="evenodd" clip-rule="evenodd" d="M3.20486 1.81346C3.62929 1.35997 4.49739 0.839255 5.10495 0.684816C5.31716 0.636861 5.83787 0.607787 6.27211 0.627422C7.2754 0.675755 8.10461 1.03259 8.80883 1.74625C10.7474 3.67541 10.1686 6.85821 7.66093 8.08315C7.16891 8.33387 7.02429 8.35313 6.0599 8.35313C5.11477 8.35313 4.94107 8.32406 4.44906 8.09259C2.02826 6.96394 1.40106 3.78114 3.20486 1.81346ZM1.00567 14.6126C1.35306 12.6838 3.09871 10.8993 4.9988 10.5424C7.56422 10.0504 9.95632 11.4007 10.9113 13.86L11.1718 14.5257L11.2009 20.8143L11.23 27.1127H9.83133H8.4327L8.40362 32.0895L8.37455 37.0662L8.05623 37.346L7.74773 37.6258H6.05986H4.37198L4.06348 37.346L3.74517 37.0662L3.71609 32.0895L3.68701 27.1127H2.2982H0.899567V21.1519C0.899567 17.3132 0.938082 14.9887 1.00567 14.6126Z" fill="#0C3058"/>
</svg>
