<svg width="60" height="41" viewBox="0 0 60 41" fill="none" xmlns="http://www.w3.org/2000/svg">
<path d="M14.5 16C14.5 15.4477 14.9477 15 15.5 15H43.5C44.0523 15 44.5 15.4477 44.5 16V26.323C44.5 26.7319 44.251 27.0996 43.8714 27.2514L29.8714 32.8514C29.633 32.9468 29.367 32.9468 29.1286 32.8514L15.1286 27.2514C14.749 27.0996 14.5 26.7319 14.5 26.323V16Z" fill="white" stroke="#E15050" stroke-width="2"/>
<path d="M56.6393 9.5941L29.8044 1.09641C29.6064 1.0337 29.3938 1.03421 29.196 1.09789L2.80871 9.5955C1.89877 9.88853 1.87931 11.1689 2.77992 11.4895L29.1675 20.8816C29.3827 20.9582 29.6176 20.9589 29.8331 20.8834L56.6677 11.4913C57.5748 11.1738 57.5555 9.88424 56.6393 9.5941Z" fill="white" stroke="#E15050" stroke-width="2"/>
<circle cx="45" cy="30" r="11" fill="#51E6CA"/>
<circle cx="45" cy="30" r="11" fill="#E15050"/>
<path fill-rule="evenodd" clip-rule="evenodd" d="M41.6281 25.2793C41.2557 24.9068 40.6518 24.9068 40.2794 25.2793C39.907 25.6517 39.907 26.2556 40.2794 26.628L43.6512 30.0001L40.2796 33.3718C39.9072 33.7443 39.9072 34.3482 40.2796 34.7206C40.6521 35.0931 41.2559 35.0931 41.6283 34.7206L44.9999 31.3488L48.3715 34.7206C48.744 35.0931 49.3478 35.0931 49.7202 34.7206C50.0927 34.3482 50.0927 33.7443 49.7202 33.3718L46.3486 30.0001L49.7204 26.628C50.0929 26.2556 50.0929 25.6517 49.7204 25.2793C49.348 24.9068 48.7442 24.9068 48.3718 25.2793L44.9999 28.6513L41.6281 25.2793Z" fill="white"/>
</svg>
