<svg width="60" height="41" viewBox="0 0 60 41" fill="none" xmlns="http://www.w3.org/2000/svg">
<path d="M14.5 16C14.5 15.4477 14.9477 15 15.5 15H43.5C44.0523 15 44.5 15.4477 44.5 16V26.323C44.5 26.7319 44.251 27.0996 43.8714 27.2514L29.8714 32.8514C29.633 32.9468 29.367 32.9468 29.1286 32.8514L15.1286 27.2514C14.749 27.0996 14.5 26.7319 14.5 26.323V16Z" fill="white" stroke="#438BCA" stroke-width="2"/>
<path d="M56.6393 9.5941L29.8044 1.09641C29.6064 1.0337 29.3938 1.03421 29.196 1.09789L2.80871 9.5955C1.89877 9.88853 1.87931 11.1689 2.77992 11.4895L29.1675 20.8816C29.3827 20.9582 29.6176 20.9589 29.8331 20.8834L56.6677 11.4913C57.5748 11.1738 57.5555 9.88424 56.6393 9.5941Z" fill="white" stroke="#438BCA" stroke-width="2"/>
<circle cx="45" cy="30" r="11" fill="#438BCA"/>
<path fill-rule="evenodd" clip-rule="evenodd" d="M41.628 25.2793C41.2556 24.9069 40.6518 24.9069 40.2793 25.2793C39.9069 25.6518 39.9069 26.2556 40.2793 26.6281L43.6511 30.0001L40.2795 33.3719C39.9071 33.7444 39.9071 34.3482 40.2795 34.7207C40.6519 35.0931 41.2557 35.0931 41.6282 34.7207L44.9998 31.3488L48.3714 34.7207C48.7439 35.0931 49.3477 35.0931 49.7201 34.7207C50.0926 34.3482 50.0926 33.7444 49.7201 33.3719L46.3485 30.0001L49.7203 26.6281C50.0927 26.2556 50.0927 25.6518 49.7203 25.2793C49.3479 24.9069 48.744 24.9069 48.3716 25.2793L44.9998 28.6513L41.628 25.2793Z" fill="white"/>
</svg>
