<svg width="23" height="24" viewBox="0 0 23 24" fill="none" xmlns="http://www.w3.org/2000/svg">
<rect width="23" height="23" fill="white"/>
<path fill-rule="evenodd" clip-rule="evenodd" d="M14.5398 1.42158H4.38209C4.0507 1.42158 3.78205 1.69022 3.78205 2.02162V21.0095C3.78205 21.3409 4.0507 21.6096 4.38209 21.6096H18.6201C18.9515 21.6096 19.2201 21.3409 19.2201 21.0095V11.5156V6.53469H15.5399C14.9876 6.53469 14.5398 6.08695 14.5398 5.53463V1.42158ZM4.38209 0.0214844H15.6036L20.6202 5.76853V11.5156V21.0095C20.6202 22.1142 19.7247 23.0097 18.6201 23.0097H4.38209C3.27745 23.0097 2.38196 22.1142 2.38196 21.0095V2.02162C2.38196 0.916972 3.27745 0.0214844 4.38209 0.0214844Z" fill="#015F8B"/>
<path fill-rule="evenodd" clip-rule="evenodd" d="M13.9999 13.4143C13.9999 13.4143 11.8507 11.7065 11.7433 10.3972C11.7433 10.3972 13.1402 6.41243 10.7224 6.46935C8.30462 6.52628 9.80902 10.7388 9.80902 10.7388C9.80902 10.7388 8.73445 13.9835 7.82106 15.0082C7.82106 15.0082 4.06004 16.7729 5.13462 18.5376C6.20919 20.3022 8.78817 17.0006 9.27173 15.919C9.27173 15.919 10.615 15.3497 13.4626 15.0651C13.4626 15.0651 17.5997 16.8298 18.0295 14.7235C18.4594 12.6173 13.9999 13.4143 13.9999 13.4143ZM10.6687 7.49401C10.6687 7.49401 10.8299 7.26631 11.0448 7.49401C11.2597 7.72171 10.7761 8.91715 10.7761 8.91715C10.7761 8.91715 10.5075 8.34789 10.6687 7.49401ZM9.80902 14.382L10.8836 12.1619C10.8836 12.1619 11.7433 13.642 12.1194 13.8697C12.1194 13.8697 10.3463 14.0974 9.80902 14.382Z" fill="#015F8B"/>
</svg>
