<svg width="17" height="17" viewBox="0 0 17 17" fill="none" xmlns="http://www.w3.org/2000/svg">
<path d="M5.10513 1.80126C5.23792 1.93409 5.31252 2.11423 5.31252 2.30205C5.31252 2.48988 5.23792 2.67001 5.10513 2.80285L3.83509 4.07289H9.38559C10.5064 4.07289 11.6019 4.40523 12.5338 5.02789C13.4657 5.65055 14.192 6.53557 14.6209 7.57102C15.0498 8.60646 15.162 9.74584 14.9434 10.8451C14.7247 11.9443 14.185 12.954 13.3925 13.7465C12.6 14.539 11.5903 15.0787 10.4911 15.2973C9.39188 15.516 8.2525 15.4038 7.21705 14.9749C6.1816 14.546 5.29659 13.8197 4.67393 12.8878C4.05127 11.9559 3.71892 10.8603 3.71892 9.73955C3.71892 9.55169 3.79355 9.37153 3.92639 9.23869C4.05923 9.10585 4.2394 9.03122 4.42726 9.03122C4.61512 9.03122 4.79529 9.10585 4.92812 9.23869C5.06096 9.37153 5.13559 9.55169 5.13559 9.73955C5.13559 10.5801 5.38485 11.4018 5.85185 12.1007C6.31884 12.7996 6.9826 13.3444 7.75919 13.666C8.53577 13.9877 9.39031 14.0719 10.2147 13.9079C11.0391 13.7439 11.7964 13.3391 12.3908 12.7448C12.9852 12.1504 13.3899 11.3931 13.5539 10.5687C13.7179 9.74427 13.6338 8.88974 13.3121 8.11315C12.9904 7.33656 12.4457 6.6728 11.7468 6.20581C11.0479 5.73881 10.2262 5.48955 9.38559 5.48955H3.83509L5.10513 6.7596C5.23416 6.89319 5.30556 7.07212 5.30394 7.25784C5.30233 7.44356 5.22783 7.62122 5.0965 7.75255C4.96517 7.88388 4.78751 7.95838 4.60179 7.95999C4.41607 7.9616 4.23714 7.89021 4.10355 7.76118L1.62438 5.28201C1.49159 5.14918 1.41699 4.96905 1.41699 4.78122C1.41699 4.5934 1.49159 4.41326 1.62438 4.28043L4.10355 1.80126C4.23638 1.66847 4.41652 1.59387 4.60434 1.59387C4.79217 1.59387 4.9723 1.66847 5.10513 1.80126Z" fill="#0C3058"/>
</svg>
