<svg width="13" height="39" viewBox="0 0 13 39" fill="none" xmlns="http://www.w3.org/2000/svg">
<path fill-rule="evenodd" clip-rule="evenodd" d="M2.56313 4.24367C2.66344 2.50196 3.92436 0.970667 5.60573 0.540432C5.82594 0.490669 6.36667 0.460498 6.81689 0.480482C8.31802 0.55062 9.53937 1.34134 10.2098 2.70258C11.2407 4.7844 10.3998 7.16637 8.25807 8.21728C7.7479 8.46727 7.59743 8.49744 6.59668 8.49744C5.59594 8.49744 5.44586 8.46766 4.9353 8.21728C3.34366 7.43635 2.46282 5.9654 2.56313 4.24367ZM2.60313 14.4028C2.80336 12.6513 3.76414 11.4201 5.34559 10.8798C6.1563 10.5992 6.93723 10.5894 7.76792 10.8496C9.35916 11.3402 10.3901 12.6313 10.5903 14.4028C10.6604 14.9431 12.4617 26.8436 12.602 27.6343L12.6619 27.9646H10.8505H9.04883V32.7587C9.04883 35.9114 9.00886 37.6527 8.93872 37.853C8.73849 38.4235 8.54845 38.4736 6.56655 38.4736C4.89537 38.4736 4.76528 38.4638 4.55487 38.2636C4.43496 38.1535 4.29469 37.9435 4.23473 37.8032C4.18458 37.6629 4.14461 35.511 4.14461 32.7587V27.9646H2.34295H0.531494L0.591446 27.6343C0.731723 26.8436 2.53299 14.9431 2.60313 14.4028Z" fill="#0C3058"/>
</svg>
